<svg id="Layer_1" data-name="Layer 1" xmlns="http://www.w3.org/2000/svg" viewBox="0 0 1166.92 310.55"><defs><style>.cls-1{fill:#81298f;}.cls-2{fill:#0066b2;}.cls-3{fill:#a5cd39;}.cls-4{fill:#f48120;}.cls-5{fill:#363053;}</style></defs><circle class="cls-1" cx="276.04" cy="34.51" r="34.51"/><path class="cls-1" d="M290.49,135.38a79.67,79.67,0,0,0-118.4-70V83A64.77,64.77,0,0,1,229,72.78c-16,1.78-33.66,10.4-48.29,25a97.56,97.56,0,0,0-8.48,9.66c18.89-3.31,38,1.56,51.41,15s18.29,32.51,15,51.41a98.93,98.93,0,0,0,9.67-8.49c14.5-14.5,23.09-31.93,25-47.84A65.5,65.5,0,0,1,263.09,174h17.5A79.91,79.91,0,0,0,290.49,135.38Z" transform="translate(-16.81 -18.73)"/><circle class="cls-2" cx="34.51" cy="276.04" r="34.51"/><path class="cls-2" d="M53.7,212.65a79.85,79.85,0,0,0,79.71,80,79,79,0,0,0,38.68-10V265a64.87,64.87,0,0,1-56.91,10.23c16-1.79,33.66-10.41,48.29-25a97.66,97.66,0,0,0,8.48-9.67c-18.89,3.31-38-1.55-51.41-15s-18.29-32.51-15-51.41a97.56,97.56,0,0,0-9.66,8.48c-14.51,14.5-23.1,31.94-25,47.85A65.52,65.52,0,0,1,81.09,174H63.59A80,80,0,0,0,53.7,212.65Z" transform="translate(-16.81 -18.73)"/><circle class="cls-3" cx="34.51" cy="34.51" r="34.51"/><path class="cls-3" d="M133.45,55.62a79.85,79.85,0,0,0-80,79.71A79,79,0,0,0,63.49,174H81.08a64.85,64.85,0,0,1-10.23-56.9c1.79,16,10.41,33.65,25.05,48.28a97.68,97.68,0,0,0,9.66,8.49c-3.31-18.9,1.55-38,15-51.41s32.52-18.3,51.41-15a97.56,97.56,0,0,0-8.48-9.66c-14.5-14.5-31.94-23.1-47.84-25A65.5,65.5,0,0,1,172.09,83V65.52A79.81,79.81,0,0,0,133.45,55.62Z" transform="translate(-16.81 -18.73)"/><circle class="cls-4" cx="276.04" cy="276.04" r="34.51"/><path class="cls-4" d="M210.73,292.41a79.68,79.68,0,0,0,70-118.4H263.1a64.87,64.87,0,0,1,10.23,56.91c-1.79-16-10.41-33.65-25-48.29a98.81,98.81,0,0,0-9.67-8.48c3.31,18.9-1.55,38-15,51.41s-32.52,18.29-51.41,15a97.66,97.66,0,0,0,8.48,9.67c14.5,14.5,31.94,23.09,47.85,25A65.52,65.52,0,0,1,172.09,265v17.5A79.81,79.81,0,0,0,210.73,292.41Z" transform="translate(-16.81 -18.73)"/><path class="cls-5" d="M405.76,147.07,377.6,104.13h14.79l19.75,31.3,20.05-31.3h14.28l-28.15,42.64V175H405.76Z" transform="translate(-16.81 -18.73)"/><path class="cls-5" d="M471.38,103.62h11.55L514.13,175H501l-7.19-17.12H460.24L453,175H440.18Zm17.83,43.25L477,118.51,464.8,146.87Z" transform="translate(-16.81 -18.73)"/><path class="cls-5" d="M526.27,104.13h31.6c8.91,0,15.9,2.63,20.46,7.09a21.41,21.41,0,0,1,5.87,15.29v.2c0,11.65-7,18.64-16.81,21.48L586.53,175H571.75l-17.43-24.72h-15.6V175H526.27ZM557,139.27c8.91,0,14.58-4.66,14.58-11.85v-.2c0-7.6-5.47-11.75-14.68-11.75H538.72v23.8Z" transform="translate(-16.81 -18.73)"/><path class="cls-5" d="M599.48,104.13h31.61c8.91,0,15.9,2.63,20.46,7.09a21.41,21.41,0,0,1,5.87,15.29v.2c0,11.65-7,18.64-16.81,21.48L659.75,175H645l-17.42-24.72h-15.6V175H599.48Zm30.7,35.14c8.91,0,14.58-4.66,14.58-11.85v-.2c0-7.6-5.47-11.75-14.69-11.75H611.94v23.8Z" transform="translate(-16.81 -18.73)"/><path class="cls-5" d="M697.83,103.62h11.54L740.57,175H727.4l-7.19-17.12H686.68L679.39,175H666.63Zm17.82,43.25L703.4,118.51l-12.16,28.36Z" transform="translate(-16.81 -18.73)"/><path class="cls-5" d="M777,104.13h13.78l21.37,54.49,21.27-54.49h13.48l-29.38,71.41h-11Z" transform="translate(-16.81 -18.73)"/><path class="cls-5" d="M874,103.62h11.55L916.79,175H903.62l-7.19-17.12H862.9L855.61,175H842.84Zm17.83,43.25-12.26-28.36-12.15,28.36Z" transform="translate(-16.81 -18.73)"/><path class="cls-5" d="M928.92,104.13h12.46v59.55h37.28V175H928.92Z" transform="translate(-16.81 -18.73)"/><path class="cls-5" d="M991.61,104.13h12.46v59.55h37.27V175H991.61Z" transform="translate(-16.81 -18.73)"/><path class="cls-5" d="M1054.3,104.13h52.57v11.14h-40.11V133.7h35.55v11.14h-35.55v19h40.61V175H1054.3Z" transform="translate(-16.81 -18.73)"/><path class="cls-5" d="M1143,147.07l-28.16-42.94h14.79l19.75,31.3,20-31.3h14.28l-28.15,42.64V175H1143Z" transform="translate(-16.81 -18.73)"/><path class="cls-5" d="M396.4,237.88l2.81-3.32c4.18,3.78,8.18,5.67,13.73,5.67,5.38,0,8.93-2.86,8.93-6.81v-.12c0-3.72-2-5.84-10.41-7.61-9.22-2-13.45-5-13.45-11.56V214c0-6.29,5.55-10.93,13.16-10.93A20.9,20.9,0,0,1,425.25,208l-2.63,3.49a17.61,17.61,0,0,0-11.56-4.35c-5.21,0-8.53,2.87-8.53,6.47v.12c0,3.77,2.06,5.89,10.87,7.78s13.05,5.21,13.05,11.33V233c0,6.87-5.72,11.33-13.68,11.33A23.47,23.47,0,0,1,396.4,237.88Z" transform="translate(-16.81 -18.73)"/><path class="cls-5" d="M435,227v-23.3h4.52v23c0,8.65,4.64,13.51,12.25,13.51,7.38,0,12.08-4.46,12.08-13.22v-23.3h4.52v23c0,11.67-6.7,17.74-16.71,17.74S435,238.28,435,227Z" transform="translate(-16.81 -18.73)"/><path class="cls-5" d="M479.12,203.65h15c9.05,0,15,4.81,15,12.71v.11c0,8.65-7.21,13.11-15.74,13.11h-9.73v14.14h-4.52Zm14.42,21.81c6.64,0,11-3.55,11-8.81v-.12c0-5.72-4.29-8.7-10.76-8.7H483.64v17.63Z" transform="translate(-16.81 -18.73)"/><path class="cls-5" d="M517.35,203.65h15c9,0,15,4.81,15,12.71v.11c0,8.65-7.21,13.11-15.74,13.11h-9.73v14.14h-4.52Zm14.43,21.81c6.64,0,11-3.55,11-8.81v-.12c0-5.72-4.3-8.7-10.77-8.7H521.87v17.63Z" transform="translate(-16.81 -18.73)"/><path class="cls-5" d="M553.81,223.8v-.11c0-11.05,8.3-20.72,20.49-20.72s20.38,9.56,20.38,20.6v.12c0,11-8.3,20.72-20.49,20.72S553.81,234.85,553.81,223.8Zm36.18,0v-.11c0-9.1-6.64-16.55-15.8-16.55s-15.68,7.33-15.68,16.43v.12c0,9.1,6.64,16.54,15.79,16.54S590,232.9,590,223.8Z" transform="translate(-16.81 -18.73)"/><path class="cls-5" d="M604.24,203.65h17.23c4.92,0,8.87,1.49,11.39,4a11.06,11.06,0,0,1,3.09,7.9v.11c0,6.64-4.58,10.53-10.87,11.68l12.3,16.37h-5.55l-11.62-15.57H608.77v15.57h-4.53Zm16.83,20.44c6,0,10.3-3.09,10.3-8.25v-.11c0-4.92-3.77-7.9-10.24-7.9H608.77v16.26Z" transform="translate(-16.81 -18.73)"/><path class="cls-5" d="M655.82,207.83H642.37v-4.18h31.48v4.18H660.4v35.89h-4.58Z" transform="translate(-16.81 -18.73)"/><path class="cls-5" d="M697.72,223.8v-.11c0-11.34,8.47-20.72,20.26-20.72,7.27,0,11.62,2.57,15.62,6.35l-3.09,3.32c-3.37-3.21-7.15-5.5-12.59-5.5-8.87,0-15.51,7.22-15.51,16.43v.12c0,9.27,6.7,16.54,15.51,16.54,5.5,0,9.1-2.12,12.94-5.78l3,2.92c-4.17,4.23-8.75,7-16,7C706.25,244.41,697.72,235.31,697.72,223.8Z" transform="translate(-16.81 -18.73)"/><path class="cls-5" d="M738.82,223.8v-.11c0-11.05,8.3-20.72,20.49-20.72s20.37,9.56,20.37,20.6v.12c0,11-8.29,20.72-20.49,20.72S738.82,234.85,738.82,223.8Zm36.17,0v-.11c0-9.1-6.64-16.55-15.8-16.55s-15.68,7.33-15.68,16.43v.12c0,9.1,6.64,16.54,15.8,16.54S775,232.9,775,223.8Z" transform="translate(-16.81 -18.73)"/><path class="cls-5" d="M787.47,223.8v-.11c0-11.05,8.3-20.72,20.49-20.72s20.38,9.56,20.38,20.6v.12c0,11-8.3,20.72-20.49,20.72S787.47,234.85,787.47,223.8Zm36.17,0v-.11c0-9.1-6.64-16.55-15.79-16.55s-15.69,7.33-15.69,16.43v.12c0,9.1,6.64,16.54,15.8,16.54S823.64,232.9,823.64,223.8Z" transform="translate(-16.81 -18.73)"/><path class="cls-5" d="M837.9,203.65h17.23c4.92,0,8.87,1.49,11.39,4a11.1,11.1,0,0,1,3.09,7.9v.11c0,6.64-4.58,10.53-10.88,11.68L871,243.72h-5.55l-11.62-15.57H842.42v15.57H837.9Zm16.83,20.44c6,0,10.3-3.09,10.3-8.25v-.11c0-4.92-3.78-7.9-10.24-7.9H842.42v16.26Z" transform="translate(-16.81 -18.73)"/><path class="cls-5" d="M879.28,203.65h13.91c12.6,0,21.3,8.65,21.3,19.92v.12c0,11.27-8.7,20-21.3,20H879.28Zm4.53,4.18v31.71h9.38c10.13,0,16.6-6.87,16.6-15.74v-.11c0-8.88-6.47-15.86-16.6-15.86Z" transform="translate(-16.81 -18.73)"/><path class="cls-5" d="M924.45,203.65H929v40.07h-4.52Z" transform="translate(-16.81 -18.73)"/><path class="cls-5" d="M940.7,203.65h4.24l25.24,32.11V203.65h4.41v40.07H971l-25.87-32.85v32.85H940.7Z" transform="translate(-16.81 -18.73)"/><path class="cls-5" d="M1000.75,203.37H1005l18.26,40.35h-4.86l-4.7-10.59h-21.8l-4.75,10.59h-4.64ZM1011.91,229l-9.1-20.38L993.65,229Z" transform="translate(-16.81 -18.73)"/><path class="cls-5" d="M1036.58,207.83h-13.45v-4.18h31.48v4.18h-13.45v35.89h-4.58Z" transform="translate(-16.81 -18.73)"/><path class="cls-5" d="M1063.48,203.65H1068v40.07h-4.53Z" transform="translate(-16.81 -18.73)"/><path class="cls-5" d="M1078,223.8v-.11c0-11.05,8.29-20.72,20.49-20.72s20.37,9.56,20.37,20.6v.12c0,11-8.3,20.72-20.49,20.72S1078,234.85,1078,223.8Zm36.17,0v-.11c0-9.1-6.64-16.55-15.8-16.55s-15.68,7.33-15.68,16.43v.12c0,9.1,6.64,16.54,15.8,16.54S1114.14,232.9,1114.14,223.8Z" transform="translate(-16.81 -18.73)"/><path class="cls-5" d="M1128.4,203.65h4.23l25.24,32.11V203.65h4.41v40.07h-3.61l-25.87-32.85v32.85h-4.4Z" transform="translate(-16.81 -18.73)"/></svg>