<svg width="65" height="62" viewBox="0 0 65 62" fill="none" xmlns="http://www.w3.org/2000/svg">
<path d="M32.6829 34.9641C33.6728 33.8515 34.3623 33.0355 35.1261 32.2715C37.7213 29.6754 40.8022 28.7185 44.3317 29.9313C47.8612 31.144 49.8188 33.7217 50.2229 37.3933C50.373 38.6362 50.2334 39.8969 49.8153 41.0769C49.3973 42.2569 48.712 43.3242 47.8131 44.1952C42.9192 49.1463 37.9772 54.0568 33.0537 58.982C32.9372 59.0772 32.8132 59.1628 32.6829 59.2379C31.9859 58.5518 31.2704 57.8508 30.5623 57.1461C26.2542 52.8365 21.9239 48.553 17.6529 44.2137C16.4295 42.9908 15.6058 41.4253 15.2907 39.7241C14.9756 38.0229 15.1839 36.2662 15.8881 34.6859C16.5935 33.0897 17.757 31.7391 19.2309 30.8054C20.7049 29.8717 22.4229 29.397 24.1669 29.4417C26.3672 29.4858 28.4613 30.396 29.995 31.9748C30.844 32.8464 31.63 33.7884 32.6829 34.9641Z" stroke="black" stroke-width="3.5" stroke-miterlimit="10"/>
<path d="M2 36.7589L32.9795 5.76855L63.2249 36.0246" stroke="black" stroke-width="3.5" stroke-linecap="round" stroke-linejoin="round"/>
<path d="M43.0193 15.8121V2.58301H53.0628V25.8555" stroke="black" stroke-width="3.5" stroke-linecap="round" stroke-linejoin="round"/>
</svg>
