<?xml version="1.0" encoding="utf-8"?>
<!-- Generator: Adobe Illustrator 28.1.0, SVG Export Plug-In . SVG Version: 6.00 Build 0)  -->
<svg version="1.1" id="Layer_1" xmlns="http://www.w3.org/2000/svg" xmlns:xlink="http://www.w3.org/1999/xlink" x="0px" y="0px"
	 viewBox="0 0 65 62" style="enable-background:new 0 0 65 62;" xml:space="preserve">
<g>
	<path d="M44.9,28.3c-4-1.4-7.8-0.4-11,2.8c-0.4,0.4-0.8,0.8-1.2,1.3c-0.5-0.6-0.9-1.1-1.4-1.6c-1.9-1.9-4.4-3-7-3.1
		c-2.1-0.1-4.1,0.5-5.9,1.6c-1.8,1.1-3.2,2.7-4,4.6c-0.9,1.9-1.1,4-0.7,6.1c0.4,2.1,1.4,3.9,2.8,5.4c3,3.1,6,6.1,9.1,9.1l3.9,3.8
		c0.6,0.6,1.2,1.2,1.8,1.8l1.3,1.3l1.2-0.7c0.2-0.1,0.4-0.3,0.6-0.4l4.1-4.1c3.6-3.6,7.2-7.2,10.8-10.8c1.1-1.1,1.9-2.4,2.4-3.8
		c0.5-1.4,0.7-3,0.5-4.5C51.5,32.8,49,29.7,44.9,28.3z M48.2,40.5c-0.3,0.9-0.9,1.8-1.6,2.5c-3.6,3.6-7.2,7.2-10.8,10.8l-3.1,3
		c-0.3-0.3-0.6-0.6-0.9-0.9l-3.9-3.8c-3-3-6.1-6-9.1-9.1c-1-1-1.6-2.2-1.9-3.6c-0.3-1.4-0.1-2.7,0.5-4c0.6-1.3,1.5-2.4,2.7-3.1
		c1.1-0.7,2.4-1.1,3.8-1.1c0.1,0,0.1,0,0.2,0c1.8,0,3.4,0.7,4.6,2c0.5,0.6,1.1,1.2,1.7,1.8c0.3,0.3,0.6,0.7,1,1.1l1.3,1.5l2-2.2
		c0.6-0.7,1.1-1.3,1.7-1.8c2.2-2.2,4.7-2.9,7.4-1.9c2.8,1,4.4,2.9,4.7,6C48.6,38.6,48.5,39.6,48.2,40.5z"/>
	<path d="M64.5,34.8l-9.6-9.7V2.6c0-1-0.8-1.8-1.8-1.8H43c-1,0-1.8,0.8-1.8,1.8v9l-7.1-7.1c-0.7-0.7-1.8-0.7-2.5,0l-31,31
		c-0.7,0.7-0.7,1.8,0,2.5c0.3,0.3,0.8,0.5,1.2,0.5s0.9-0.2,1.2-0.5L33,8.2l8.8,8.8c0,0,0,0,0,0L62,37.3c0.7,0.7,1.8,0.7,2.5,0
		C65.1,36.6,65.1,35.5,64.5,34.8z M44.8,4.3h6.5v17.3l-6.5-6.5V4.3z"/>
</g>
</svg>
